<?xml version="1.0" encoding="UTF-8"?>
<svg version="1.1" xmlns="http://www.w3.org/2000/svg" width="256" height="256">
<path d="M0 0 C1.16692383 0.36206543 1.16692383 0.36206543 2.35742188 0.73144531 C19.51676195 6.19248429 34.16162787 14.56332882 48 26 C48.77085937 26.6290625 49.54171875 27.258125 50.3359375 27.90625 C55.0491663 31.87908653 59.12096201 36.21502957 63 41 C63.69996094 41.86238281 64.39992187 42.72476563 65.12109375 43.61328125 C75.66206627 57.11376426 82.93038452 71.66081205 88 88 C88.2259082 88.70833984 88.45181641 89.41667969 88.68457031 90.14648438 C95.12454176 111.29649814 94.70003659 138.99189667 88 160 C87.75862305 160.77794922 87.51724609 161.55589844 87.26855469 162.35742188 C81.80751571 179.51676195 73.43667118 194.16162787 62 208 C61.3709375 208.77085937 60.741875 209.54171875 60.09375 210.3359375 C56.12091347 215.0491663 51.78497043 219.12096201 47 223 C46.13761719 223.69996094 45.27523437 224.39992187 44.38671875 225.12109375 C30.88623574 235.66206627 16.33918795 242.93038452 0 248 C-0.70833984 248.2259082 -1.41667969 248.45181641 -2.14648438 248.68457031 C-23.29649814 255.12454176 -50.99189667 254.70003659 -72 248 C-72.77794922 247.75862305 -73.55589844 247.51724609 -74.35742188 247.26855469 C-91.51676195 241.80751571 -106.16162787 233.43667118 -120 222 C-121.15628906 221.05640625 -121.15628906 221.05640625 -122.3359375 220.09375 C-127.0491663 216.12091347 -131.12096201 211.78497043 -135 207 C-135.69996094 206.13761719 -136.39992187 205.27523437 -137.12109375 204.38671875 C-147.66206627 190.88623574 -154.93038452 176.33918795 -160 160 C-160.2259082 159.29166016 -160.45181641 158.58332031 -160.68457031 157.85351562 C-167.12454176 136.70350186 -166.70003659 109.00810333 -160 88 C-159.75862305 87.22205078 -159.51724609 86.44410156 -159.26855469 85.64257812 C-153.80751571 68.48323805 -145.43667118 53.83837213 -134 40 C-133.3709375 39.22914062 -132.741875 38.45828125 -132.09375 37.6640625 C-128.12091347 32.9508337 -123.78497043 28.87903799 -119 25 C-118.13761719 24.30003906 -117.27523437 23.60007812 -116.38671875 22.87890625 C-102.88623574 12.33793373 -88.33918795 5.06961548 -72 0 C-71.29166016 -0.2259082 -70.58332031 -0.45181641 -69.85351562 -0.68457031 C-48.70350186 -7.12454176 -21.00810333 -6.70003659 0 0 Z " fill="#58AA89" transform="translate(164,4)"/>
<path d="M0 0 C3.73922129 1.5813062 6.29649737 3.93230398 9.25 6.6875 C12.48815511 9.68479616 15.72928552 12.67054609 19.0625 15.5625 C22.01707997 18.12673912 24.91960685 20.74137557 27.8125 23.375 C31.16801725 26.40973184 34.58838182 29.3041891 38.125 32.125 C39.52599672 33.27971199 40.92648747 34.43508169 42.31933594 35.59960938 C43.56122096 36.6343933 44.81039911 37.66043884 46.06347656 38.68164062 C59.08079433 49.4085045 59.08079433 49.4085045 60.97265625 54.7421875 C60.77985886 57.76111251 59.99992467 60.14000041 59 63 C58.65325025 64.43141029 58.32251502 65.86675174 58.00390625 67.3046875 C53.01270701 89.15159656 43.72804794 108.08794495 29 125 C28.46632813 125.65484375 27.93265625 126.3096875 27.3828125 126.984375 C18.50790866 137.82614942 6.59657796 146.12991668 -5.4375 153.125 C-6.11167969 153.5276709 -6.78585938 153.9303418 -7.48046875 154.34521484 C-10.16171869 155.85542887 -12.38010754 156.97465848 -15.484375 157.1015625 C-19.37627161 155.3973469 -22.49820847 152.88141528 -25.8125 150.25 C-26.55878662 149.66871338 -27.30507324 149.08742676 -28.07397461 148.48852539 C-33.79798213 144.00957547 -39.43048836 139.41884879 -45.0480957 134.80761719 C-50.24673279 130.5587741 -55.58396799 126.52749311 -60.98046875 122.53466797 C-66.62548516 118.3356314 -72.0898255 113.9360772 -77.50976562 109.45117188 C-80.59169513 106.91027074 -83.69210926 104.47573979 -86.96484375 102.18359375 C-87.96644531 101.46300781 -88.96804687 100.74242187 -90 100 C-90 99.67 -90 99.34 -90 99 C-89.3709375 98.93683594 -88.741875 98.87367188 -88.09375 98.80859375 C-76.85484369 97.2006177 -71.39736937 89.51800477 -64.109375 81.4296875 C-60.68505779 77.63547315 -57.18870372 73.91067428 -53.6875 70.1875 C-52.40096324 68.81778199 -51.11450523 67.44799001 -49.828125 66.078125 C-49.19068359 65.39943359 -48.55324219 64.72074219 -47.89648438 64.02148438 C-44.90440226 60.83218984 -41.9204739 57.6353118 -38.9375 54.4375 C-38.36410889 53.82285889 -37.79071777 53.20821777 -37.19995117 52.57495117 C-36.04454664 51.33630939 -34.88919171 50.09762135 -33.73388672 48.85888672 C-31.40638727 46.36359232 -29.07815137 43.86898622 -26.74951172 41.37475586 C-25.59037922 40.13264332 -24.43184274 38.88997429 -23.27392578 37.64672852 C-20.23393894 34.38420949 -17.18243386 31.13355226 -14.11328125 27.8984375 C-13.47712891 27.22490234 -12.84097656 26.55136719 -12.18554688 25.85742188 C-10.97046889 24.57139043 -9.751917 23.28862896 -8.52929688 22.00976562 C-3.64968431 16.83268547 -0.71615654 13.03404901 -0.3125 5.6875 C-0.24675781 4.61886719 -0.18101562 3.55023438 -0.11328125 2.44921875 C-0.07589844 1.64097656 -0.03851563 0.83273438 0 0 Z " fill="#46886E" transform="translate(196,88)"/>
<path d="M0 0 C3.92812955 1.77165178 7.04981467 3.99042809 10 7.125 C11.9833797 12.82721664 12.08076602 18.7033722 9.5 24.1875 C6.80058692 27.22433971 3.99082429 30.09399027 1.078125 32.92578125 C-0.90232369 34.90250729 -2.74003695 36.94039776 -4.5625 39.0625 C-7.32242187 42.27302136 -10.23091015 45.25357247 -13.25 48.21875 C-15.08242487 50.08389674 -16.79353135 52.01927746 -18.5 54 C-21.28239332 57.22956367 -24.21019429 60.23322653 -27.25 63.21875 C-29.08242487 65.08389674 -30.79353135 67.01927746 -32.5 69 C-35.28239332 72.22956367 -38.21019429 75.23322653 -41.25 78.21875 C-43.08242487 80.08389674 -44.79353135 82.01927746 -46.5 84 C-49.27946154 87.22616072 -52.20197764 90.22817091 -55.2421875 93.20703125 C-57.12854056 95.13111137 -58.87537799 97.1387002 -60.625 99.1875 C-67.93492133 107.66372338 -67.93492133 107.66372338 -73.171875 108.23828125 C-80.43194785 108.44728335 -83.74834267 107.0536782 -89.1171875 102.01171875 C-93.41055766 97.82676702 -97.41889134 93.44709904 -101.3203125 88.8984375 C-103.52165393 86.41040974 -105.88088515 84.10805923 -108.25 81.78125 C-110.70634849 79.28103815 -112.96309368 76.62319484 -115.25 73.96875 C-116.93798286 72.06976929 -118.68769734 70.27994012 -120.5 68.5 C-131.97926994 57.12438035 -131.97926994 57.12438035 -133 51 C-133 44.89571178 -131.73758938 41.94386487 -127.66796875 37.4453125 C-123.51896965 33.85016105 -119.79525469 33.55462726 -114.45703125 33.6953125 C-108.13227519 34.47962247 -104.64061099 39.3416032 -100.78515625 43.92578125 C-99.09955938 45.88431941 -97.3469046 47.69441318 -95.5 49.5 C-92.41477714 52.5301296 -89.5920548 55.72717423 -86.77734375 59.0078125 C-84.40946682 61.66191631 -81.86925518 64.11257203 -79.28515625 66.5546875 C-78 68 -78 68 -78 70 C-69.77611045 65.47832407 -63.68307067 57.92002873 -57.64453125 50.86328125 C-55.45726258 48.38506948 -53.10720121 46.09635833 -50.75 43.78125 C-48.91757513 41.91610326 -47.20646865 39.98072254 -45.5 38 C-42.71760668 34.77043633 -39.78980571 31.76677347 -36.75 28.78125 C-34.91757513 26.91610326 -33.20646865 24.98072254 -31.5 23 C-28.71914413 19.77222087 -25.79854625 16.76666231 -22.75 13.79296875 C-20.88443141 11.88159379 -19.20312803 9.86917916 -17.5 7.8125 C-12.6479968 2.23486239 -7.7392431 -1.22198575 0 0 Z " fill="#FDFEFD" transform="translate(185,79)"/>
</svg>
